<svg version="1.0"
     xmlns="http://www.w3.org/2000/svg"
     xmlns:xlink="http://www.w3.org/1999/xlink"
     xmlns:ev="http://www.w3.org/2001/xml-events"
 width="1301.000000pt" height="1306.000000pt" viewBox="0 0 1301.000000 1306.000000"
 preserveAspectRatio="xMidYMid meet">

<g transform="translate(0.000000,1306.000000) scale(0.100000,-0.100000)"
fill="#C4C4C4" stroke="none">
<path d="M6155 13010 c-1366 -81 -2629 -562 -3690 -1405 -1198 -952 -2027
-2306 -2324 -3800 -194 -973 -168 -1952 79 -2911 465 -1807 1708 -3342 3386
-4182 645 -322 1363 -541 2079 -632 345 -44 856 -62 1190 -41 1434 88 2710
596 3820 1520 167 139 582 549 722 711 795 930 1301 2005 1497 3185 66 397 81
596 81 1070 0 439 -9 575 -61 935 -341 2376 -1990 4383 -4264 5189 -516 182
-1042 295 -1615 346 -209 19 -698 27 -900 15z m615 -3390 l0 -790 -265 0 -265
0 0 790 0 790 265 0 265 0 0 -790z m-2258 -717 l558 -558 -187 -187 -188 -188
-557 557 c-307 307 -558 562 -558 568 0 13 352 365 365 365 5 0 261 -251 567
-557z m4376 -380 l-563 -563 -187 187 -188 188 562 562 563 563 187 -187 188
-188 -562 -562z m-2138 -68 c216 -29 403 -83 585 -169 602 -286 1008 -839
1101 -1502 19 -143 15 -452 -9 -579 -82 -433 -266 -779 -573 -1075 -269 -259
-586 -427 -959 -506 -164 -35 -482 -45 -655 -20 -432 63 -807 251 -1110 555
-911 915 -693 2442 439 3070 219 122 507 212 746 234 102 9 340 5 435 -8z
m-2540 -1930 l0 -265 -795 0 -795 0 0 265 0 265 795 0 795 0 0 -265z m6190 0
l0 -265 -795 0 -795 0 0 265 0 265 795 0 795 0 0 -265z m-5520 -1620 l185
-185 -563 -563 -562 -562 -187 188 -188 187 560 560 c308 308 562 560 565 560
3 0 88 -83 190 -185z m4002 -382 l558 -558 -187 -187 -188 -188 -562 562 -563
563 182 182 c101 101 187 183 193 183 5 0 261 -251 567 -557z m-2112 -1088 l0
-795 -265 0 -265 0 0 795 0 795 265 0 265 0 0 -795z"/>
<path d="M6335 7984 c-245 -36 -465 -121 -665 -258 -108 -73 -293 -262 -368
-375 -111 -166 -190 -355 -229 -548 -13 -66 -18 -136 -18 -278 0 -163 3 -205
23 -294 145 -645 663 -1104 1311 -1161 563 -48 1112 239 1391 727 132 229 194
466 194 733 -1 360 -118 676 -355 955 -199 236 -495 409 -819 480 -73 16 -396
29 -465 19z m175 -1456 l0 -1231 -102 6 c-353 20 -708 228 -917 535 -207 305
-265 703 -155 1054 62 197 158 355 308 504 188 188 410 305 646 344 41 6 82
13 90 15 8 1 41 3 73 4 l57 1 0 -1232z"/>
</g>
</svg>
